HIERARCHY
ROOT Hips
{
	OFFSET 0.000000 0.000000 0.000000 
	CHANNELS 6 Xposition Yposition Zposition Zrotation Xrotation Yrotation
	JOINT Spine
	{
		OFFSET -0.000000 8.061080 0.000000 
		CHANNELS 3 Zrotation Xrotation Yrotation
		JOINT Spine1
		{
			OFFSET -0.000000 20.532677 0.000000 
			CHANNELS 3 Zrotation Xrotation Yrotation
			JOINT Neck
			{
				OFFSET -0.000000 22.498795 0.000000 
				CHANNELS 3 Zrotation Xrotation Yrotation
				JOINT Head
				{
					OFFSET -0.000000 15.237408 1.966117 
					CHANNELS 3 Zrotation Xrotation Yrotation
					End Site
					{
						OFFSET -0.000000 19.661171 0.000000 
					}
				}
			}
			JOINT LeftShoulder
			{
				OFFSET 3.894675 16.042269 -0.398189 
				CHANNELS 3 Zrotation Xrotation Yrotation
				JOINT LeftArm
				{
					OFFSET 19.709621 0.000000 0.000000 
					CHANNELS 3 Zrotation Xrotation Yrotation
					JOINT LeftForeArm
					{
						OFFSET 25.566900 0.000000 0.000000 
						CHANNELS 3 Zrotation Xrotation Yrotation
						JOINT LeftHand
						{
							OFFSET 25.401896 0.000000 0.000000 
							CHANNELS 3 Zrotation Xrotation Yrotation
							End Site
							{
								OFFSET 14.745877 0.000000 0.000000 
							}
						}
					}
				}
			}
			JOINT RightShoulder
			{
				OFFSET -3.930777 16.042269 -0.398189 
				CHANNELS 3 Zrotation Xrotation Yrotation
				JOINT RightArm
				{
					OFFSET -19.709621 0.000000 0.000000 
					CHANNELS 3 Zrotation Xrotation Yrotation
					JOINT RightForeArm
					{
						OFFSET -25.566900 0.000000 0.000000 
						CHANNELS 3 Zrotation Xrotation Yrotation
						JOINT RightHand
						{
							OFFSET -25.401896 0.000000 0.000000 
							CHANNELS 3 Zrotation Xrotation Yrotation
							End Site
							{
								OFFSET -14.745877 0.000000 0.000000 
							}
						}
					}
				}
			}
		}
	}
	JOINT LeftUpLeg
	{
		OFFSET 9.830585 0.000000 0.000000 
		CHANNELS 3 Zrotation Xrotation Yrotation
		JOINT LeftLeg
		{
			OFFSET -0.000000 -46.474842 0.000000 
			CHANNELS 3 Zrotation Xrotation Yrotation
			JOINT LeftFoot
			{
				OFFSET -0.000000 -30.290520 0.000000 
				CHANNELS 3 Zrotation Xrotation Yrotation
				JOINT LeftToeBase
				{
					OFFSET -0.000000 -6.389880 14.745877 
					CHANNELS 3 Zrotation Xrotation Yrotation
					End Site
					{
						OFFSET -0.000000 0.000000 3.932234 
					}
				}
			}
		}
	}
	JOINT RightUpLeg
	{
		OFFSET -9.830585 0.000000 0.000000 
		CHANNELS 3 Zrotation Xrotation Yrotation
		JOINT RightLeg
		{
			OFFSET -0.000000 -46.474842 0.000000 
			CHANNELS 3 Zrotation Xrotation Yrotation
			JOINT RightFoot
			{
				OFFSET -0.000000 -30.290520 0.000000 
				CHANNELS 3 Zrotation Xrotation Yrotation
				JOINT RightToeBase
				{
					OFFSET -0.000000 -6.389880 14.745877 
					CHANNELS 3 Zrotation Xrotation Yrotation
					End Site
					{
						OFFSET -0.000000 0.000000 3.932234 
					}
				}
			}
		}
	}
}
MOTION
Frames: 6
Frame Time: 0.010000
0.000000 85.460602 0.000000 -1.268338 3.365650 3.156764 1.571342 -7.486060 -0.749749 2.325186 -0.781111 -0.270190 3.726269 10.885216 1.127912 -1.418974 1.882261 2.224645 2.876723 11.177043 0.057120 -70.606926 26.853518 -24.557329 -12.556964 0.987018 -4.116660 3.625077 0.766557 7.343139 -7.947203 9.959893 -10.086864 57.324654 51.652779 36.215160 5.025774 -7.051516 6.705210 -7.166175 -6.689982 -10.490593 4.399322 3.462205 4.217852 2.022050 -6.377545 0.395359 0.412742 3.806214 0.743882 0.000000 0.000000 0.000000 -7.745140 -2.526114 6.974985 9.885880 5.479213 -15.523689 -8.978110 0.073195 -8.374222 0.000000 0.000000 0.000000 
0.002684 85.464035 -0.003399 -1.282753 3.367109 3.157541 1.491001 -7.470320 -0.767003 2.503328 -0.848997 -0.271384 3.630871 10.996543 1.161847 -1.411862 1.770544 2.238997 2.781800 11.253916 -0.054802 -70.675430 26.705692 -24.450212 -12.529583 1.024574 -4.176884 3.645227 0.800335 7.356896 -8.059640 10.111206 -10.137021 57.161366 51.605461 36.471596 5.103049 -7.078639 6.677098 -7.156387 -6.717692 -10.547807 4.416285 3.467666 4.224791 2.056073 -6.343256 0.390090 -0.094382 3.602574 0.873050 0.000000 0.000000 0.000000 -7.711248 -2.497829 6.933095 9.860697 5.494450 -14.598876 -9.019503 0.103893 -9.257710 0.000000 0.000000 0.000000 
-0.001030 85.459373 -0.000422 -1.270393 3.364382 3.164463 1.571219 -7.485410 -0.758475 2.314628 -0.784100 -0.272980 3.745767 10.882865 1.142934 -1.435741 1.826232 2.246343 2.877828 11.207530 0.072281 -70.575256 26.855814 -24.596407 -12.567938 0.989853 -4.118848 3.613694 0.767998 7.338223 -7.953607 9.959522 -10.090425 57.346397 51.657982 36.207638 5.029238 -7.070527 6.706319 -7.252386 -6.701142 -10.494245 4.398327 3.457907 4.220046 2.039376 -6.368551 0.389577 0.418936 3.797500 0.716785 0.000000 0.000000 0.000000 -7.743069 -2.525594 6.968883 9.882590 5.486022 -15.527989 -8.970341 0.060833 -8.367281 0.000000 0.000000 0.000000 
-0.001061 85.459908 -0.000136 -1.268221 3.368931 3.158323 1.572630 -7.496959 -0.758960 2.306694 -0.774921 -0.273693 3.737341 10.856458 1.160443 -1.421475 1.841129 2.259726 2.877692 11.188038 0.072826 -70.596352 26.833696 -24.549425 -12.565838 1.000663 -4.139594 3.618806 0.776812 7.336162 -7.980002 9.977952 -10.069847 57.367302 51.656628 36.218655 5.021673 -7.091331 6.702129 -7.260928 -6.721077 -10.486031 4.395141 3.443941 4.216227 1.964512 -6.328531 0.573541 0.577778 3.760332 0.634356 0.000000 0.000000 0.000000 -7.744078 -2.530908 6.968701 9.882200 5.483244 -15.521616 -8.974522 0.068019 -8.378582 0.000000 0.000000 0.000000 
0.002206 85.459076 -0.018497 -1.302506 3.429108 3.171489 1.525360 -7.511362 -0.801122 2.445007 -0.852467 -0.284035 3.706037 10.896962 1.191098 -1.478451 1.804137 2.293340 2.794906 11.159617 -0.052260 -70.675095 26.901812 -24.363419 -12.434666 0.916746 -4.187919 3.581915 0.689508 7.318947 -8.033894 10.063931 -10.112232 57.236633 51.563354 36.376194 5.126358 -7.070741 6.703521 -7.224498 -6.706581 -10.539383 4.450695 3.394402 4.216389 2.033797 -6.368443 0.268856 -0.091423 3.628666 0.939608 0.000000 0.000000 0.000000 -7.696674 -2.573525 6.905931 9.864970 5.510037 -14.623067 -9.002087 0.087342 -9.245728 0.000000 0.000000 0.000000 
-0.003512 85.459793 0.002775 -1.265829 3.359522 3.140375 1.584528 -7.501513 -0.749966 2.272485 -0.763366 -0.271372 3.781775 10.861145 1.155148 -1.479432 1.798261 2.272468 2.893731 11.217184 0.075192 -70.567902 26.825191 -24.579643 -12.574963 1.008469 -4.137019 3.581434 0.781930 7.330626 -7.949589 9.954373 -10.077185 57.342674 51.685020 36.221249 5.031658 -7.119370 6.700340 -7.327625 -6.745414 -10.456830 4.408935 3.484445 4.243412 2.060765 -6.345844 0.379381 -0.018420 3.594010 0.714136 0.000000 0.000000 0.000000 -7.741636 -2.525514 6.985045 9.878719 5.487430 -15.531347 -8.974601 0.065435 -8.361375 0.000000 0.000000 0.000000 
